<svg width="100" height="25" viewBox="0 0 100 25" fill="none" xmlns="http://www.w3.org/2000/svg">
<path d="M81.1562 16.5198V0.418945H100V4.53999H87.4337V6.60051H100V10.3262H87.4337V12.3867H100V16.5198H81.1562Z" fill="white"/>
<path d="M61.3936 0.394531H67.671V11.392H80.2377V16.4954H61.3936V0.394531Z" fill="white"/>
<path d="M53.0127 0.394531H59.2901V16.4954H53.0127V0.394531Z" fill="white"/>
<path d="M22.3018 16.4954L22.8596 0.394531H30.7183L36.9957 8.44494L43.2851 0.394531H51.1318L50.574 16.4954H44.2966L44.8544 7.90585L38.0072 16.4954H34.8685L29.137 7.90585L28.5792 16.4954H22.3018Z" fill="white"/>
<path d="M6.57691 5.70237C6.57691 6.40918 8.52962 6.50502 11.0574 6.62482C15.5498 6.85243 21.8631 7.16391 21.8511 11.2011C21.8511 15.8013 16.58 16.8915 10.9256 16.8915C5.2831 16.8795 0.599006 16.1967 1.70237e-05 11.2011H6.57691C7.2957 12.447 8.96089 12.7704 10.9256 12.7704C12.8783 12.7704 15.2742 12.447 15.2742 11.2011C15.2742 10.4943 13.3215 10.3865 10.7938 10.2667C6.30138 10.0391 -0.0119628 9.72758 1.70237e-05 5.70237C1.70237e-05 1.10214 5.27112 0 10.9256 0C16.5681 0.0359393 21.2521 0.670868 21.8511 5.70237H15.2742C14.5554 4.43252 12.8903 4.13302 10.9256 4.13302C8.97287 4.13302 6.57691 4.42054 6.57691 5.70237Z" fill="white"/>
<g clip-path="url(#clip0_100_161)">
<path d="M61.2972 24.5886C66.8434 24.5886 71.3395 20.3496 71.3395 15.1205C71.3395 9.89137 66.8434 5.65234 61.2972 5.65234C55.751 5.65234 51.2549 9.89137 51.2549 15.1205C51.2549 20.3496 55.751 24.5886 61.2972 24.5886Z" fill="url(#paint0_linear_100_161)"/>
<path d="M71.9078 15.8348C71.8929 15.6288 71.8696 15.4228 71.8441 15.2177C71.8118 14.9548 71.7749 14.6928 71.7294 14.4325C71.6815 14.1586 71.6267 13.8864 71.5553 13.6175C71.3808 12.9695 71.1842 12.0462 70.8589 11.4572C70.5191 10.8338 70.4414 10.5527 69.9955 9.99888C69.598 9.50356 69.16 9.04205 68.6862 8.61911C68.1448 8.1371 67.8105 7.7171 67.1926 7.34296C66.5005 6.92829 65.7788 6.56534 65.0332 6.25706C64.8847 6.19142 64.7329 6.13359 64.5783 6.08379C64.3325 6.0099 64.1405 5.43319 63.7715 5.48118C63.7634 5.48118 63.746 5.46971 63.7256 5.45358C63.6986 5.46752 63.6685 5.47425 63.6381 5.47311C63.5956 5.46716 63.5493 5.46419 63.5048 5.4591L63.4716 5.45485L63.4653 5.4591L63.4691 5.45442C63.4183 5.44989 63.3682 5.43993 63.3196 5.4247C63.2814 5.41406 63.2466 5.39372 63.2185 5.36567L63.1816 5.31938C63.1745 5.30576 63.1687 5.29155 63.1642 5.27691C63.1086 5.28513 63.0522 5.28585 62.9964 5.27903C62.8125 5.24931 62.5683 5.24251 62.3823 5.22595C62.2125 5.21066 62.0851 5.14101 61.9152 5.13847C61.4536 5.12912 60.9508 5.10067 60.4947 5.17244C60.1798 5.22153 59.8679 5.28803 59.5604 5.37161C59.1177 5.49704 58.6824 5.64733 58.2566 5.82177C57.5771 6.09399 56.9172 6.40825 56.2606 6.7344C55.5494 7.08901 54.8945 7.54696 54.3173 8.09336C52.5564 9.76719 51.4116 11.9861 51.0681 14.3913C51.0257 14.714 50.9908 15.0381 50.9777 15.3634C50.9576 15.8042 50.968 16.246 51.0087 16.6854C51.0359 16.9589 51.0707 17.2298 51.1208 17.5012C51.2258 18.0603 51.3803 18.6091 51.5824 19.1409C52.1533 20.6813 53.1617 22.0214 54.4838 22.9965C55.3599 23.6505 56.3311 24.107 57.3805 24.4043C57.6867 24.4892 57.9967 24.5631 58.3089 24.623C58.4893 24.6574 58.6694 24.6837 58.8503 24.7118C58.9641 24.7292 59.0784 24.7445 59.193 24.7585C59.351 24.7772 59.5094 24.7958 59.6678 24.8107C59.7952 24.8226 59.9184 24.8281 60.0437 24.8375C60.2963 24.857 60.5511 24.8697 60.8059 24.8727C61.1763 24.8778 61.5462 24.8753 61.9156 24.8498C62.122 24.8358 62.3284 24.823 62.534 24.7963C62.7255 24.7712 62.9183 24.7538 63.1094 24.7262C63.3302 24.6931 63.5505 24.6553 63.7702 24.6128C64.1825 24.5355 64.6268 24.3886 65.0332 24.2837C65.6073 24.1393 65.8783 24.0017 66.4155 23.7528C67.6955 23.1502 68.49 22.7026 69.5517 21.7649C69.8248 21.5258 70.458 20.8039 70.658 20.4544C70.7629 20.2709 70.8576 20.1597 70.9383 19.9906C71.019 19.8216 71.1408 19.5621 71.2135 19.38C71.3375 19.0704 71.4356 18.8011 71.5659 18.3849C71.6995 17.9542 71.7929 17.5121 71.845 17.0642C71.8738 16.8217 71.8874 16.5775 71.8993 16.3333C71.9115 16.1674 71.9143 16.001 71.9078 15.8348ZM70.8589 17.3547C70.7778 17.8223 70.6436 18.2791 70.4588 18.7162C70.1417 19.4498 69.6926 20.119 69.1338 20.6905C68.6195 21.2235 68.1728 21.7454 67.5358 22.1242C66.8988 22.503 66.3089 22.8147 65.6044 23.0627C65.2056 23.2033 64.755 23.3868 64.2879 23.4819C63.9001 23.56 63.2113 23.7261 63.0338 23.7541C62.92 23.7715 62.4979 23.814 62.3832 23.8272C62.2214 23.8463 61.9882 23.8395 61.826 23.8514C61.6774 23.8624 61.4587 23.8424 61.31 23.8514C61.0013 23.8705 60.7274 23.856 60.4182 23.8514C60.225 23.8484 60.036 23.842 59.8385 23.8272C59.6411 23.8123 59.4461 23.8012 59.2508 23.7753C59.0554 23.7494 58.8686 23.7354 58.6749 23.707C58.4102 23.6679 58.1465 23.6233 57.8838 23.5732C57.418 23.4866 56.96 23.3626 56.5142 23.2025C55.0805 22.6818 53.9237 21.801 53.0633 20.5368C52.6042 19.8637 52.1158 18.9655 51.9035 17.6685C51.9025 17.6653 51.9018 17.662 51.9014 17.6587C51.8559 17.3947 51.8257 17.1283 51.8109 16.8608C51.7925 16.5736 51.7904 16.2857 51.8045 15.9983C51.8092 15.9235 51.8113 15.8492 51.8181 15.7749C51.8347 15.605 51.8636 15.439 51.889 15.2712C51.9226 15.0538 51.9476 14.8347 51.9863 14.6172C52.0828 14.0837 52.2248 13.5594 52.411 13.0502C52.4857 12.8429 52.5774 12.6425 52.6556 12.4369C52.8606 11.902 53.1129 11.3864 53.4094 10.8962C53.8016 10.2528 54.2527 9.64713 54.7569 9.0871C55.1604 8.62736 55.6165 8.21658 56.1158 7.86318C56.1383 7.8479 56.1583 7.82963 56.1795 7.81222C56.574 7.4805 57.0032 7.19232 57.4595 6.95268C58.3349 6.49297 59.2547 6.12303 60.2046 5.84852C60.5686 5.74405 61.1775 5.74745 61.5504 5.67653C61.7534 5.63831 61.9751 5.70413 62.1789 5.67653C62.3671 5.65105 62.5514 5.78397 62.7408 5.76571C62.8894 5.75127 62.9841 5.85065 63.1327 5.85065C63.4338 5.89694 63.3238 6.00438 63.6169 6.08847C64.2245 6.26597 64.81 6.51218 65.3619 6.8223C65.8705 7.10785 66.3577 7.43018 66.8193 7.78674C67.4924 8.29818 68.1023 8.8878 68.6361 9.5432C69.0727 10.09 69.4626 10.6724 69.8018 11.2844C70.1162 11.8347 70.3777 12.4135 70.5828 13.0132C70.8096 13.6782 70.9413 14.3719 70.9739 15.0737C70.9863 15.3447 70.9897 15.6165 70.9863 15.8878C70.9841 16.3795 70.9415 16.8701 70.8589 17.3547Z" fill="black"/>
<path d="M63.9253 12.3972C64.0715 12.985 64.173 13.5829 64.229 14.186C64.251 14.4527 64.2595 14.7113 64.2234 14.9393C64.1695 15.2791 64.0187 15.316 63.8174 15.0332C63.6259 14.7644 63.4815 14.4187 63.3537 14.0564C62.9426 12.8988 62.6619 11.7207 62.6037 10.5219C62.588 10.2004 62.5829 9.8445 62.7651 9.79141C62.9587 9.73451 63.1176 10.0768 63.256 10.3702C63.5512 10.9975 63.7546 11.688 63.9253 12.3972Z" fill="black"/>
<path d="M59.2239 13.0665C59.2967 13.6678 59.324 14.2737 59.3055 14.879C59.2953 15.1466 59.2719 15.4043 59.2078 15.626C59.1131 15.956 58.9585 15.9747 58.7937 15.6685C58.6362 15.378 58.5355 15.017 58.454 14.6433C58.1877 13.4436 58.0535 12.2409 58.1427 11.0434C58.1665 10.7223 58.2051 10.3685 58.3928 10.338C58.5916 10.3057 58.7075 10.6645 58.809 10.975C59.0239 11.6307 59.1411 12.3412 59.2239 13.0665Z" fill="black"/>
<path d="M60.4941 5.17239C60.4941 5.17239 64.0474 4.29459 67.982 7.95274C71.9166 11.6109 67.2724 7.95274 67.2724 7.95274L65.0322 6.25404L60.9553 5.43272L60.4941 5.17239Z" fill="black"/>
<path d="M63.6155 6.08586C63.6155 6.08586 62.3665 5.58644 59.4961 6.071C56.6258 6.55555 59.7841 5.65227 59.7841 5.65227L61.4373 5.39746L63.415 5.72998L63.6155 6.08586Z" fill="black"/>
<path d="M55.6599 19.0267C55.7171 19.131 55.7827 19.2304 55.8561 19.3239C56.0646 19.6064 56.3025 19.8659 56.5658 20.0981C57.4601 20.8795 58.5783 21.3662 59.7419 21.5794C60.895 21.7831 62.0742 21.7919 63.2302 21.6053C64.1114 21.4731 64.9592 21.1739 65.7281 20.7237C66.8582 20.0476 67.6995 18.9693 67.9594 17.666C68.0001 17.4565 68.0299 17.245 68.0486 17.0324C68.0719 16.7831 67.8129 16.544 67.5716 16.5551C67.2931 16.5674 67.1189 16.7653 67.0943 17.0324C67.0901 17.0783 67.085 17.1245 67.0799 17.1708C67.0756 17.2108 67.0506 17.2668 67.0833 17.1496C67.0792 17.1692 67.0763 17.1891 67.0748 17.2091C67.0612 17.2963 67.0453 17.383 67.0272 17.4694C66.9925 17.6336 66.948 17.7955 66.8939 17.9544C66.868 18.0304 66.8395 18.1051 66.8089 18.1799C66.7784 18.2546 66.8561 18.0733 66.8055 18.1862C66.7877 18.2257 66.7694 18.2644 66.7508 18.3034C66.6845 18.439 66.6105 18.5706 66.5291 18.6975C66.4917 18.7559 66.4528 18.8125 66.4123 18.8674C66.3911 18.8967 66.3677 18.9252 66.3473 18.9549C66.3473 18.9523 66.4246 18.8576 66.3779 18.915L66.3316 18.9702C66.2418 19.0791 66.1465 19.1834 66.0462 19.2827C65.9485 19.3796 65.8458 19.4717 65.7392 19.5588C65.7158 19.5779 65.692 19.5966 65.6683 19.6153C65.6198 19.6548 65.7651 19.5431 65.6755 19.6093C65.6186 19.6518 65.5617 19.6943 65.5031 19.7325C65.2889 19.878 65.0647 20.008 64.8321 20.1215C64.7791 20.1475 64.726 20.1726 64.6728 20.1966L64.5879 20.234C64.469 20.2858 64.6788 20.1971 64.5904 20.234C64.4851 20.2765 64.3781 20.319 64.2719 20.3567C63.9084 20.4854 63.5352 20.5848 63.1559 20.654C63.0892 20.6663 63.0221 20.6774 62.955 20.688L62.8752 20.6995C62.7924 20.7118 62.9962 20.6842 62.9554 20.6888L62.9172 20.6935C62.8654 20.6999 62.8136 20.705 62.7614 20.7101C61.9647 20.7861 61.1684 20.8129 60.3721 20.7177L60.3089 20.7097C60.2379 20.702 60.4329 20.7279 60.3267 20.7122L60.204 20.6939C60.1097 20.6795 60.0154 20.6629 59.922 20.6447C59.758 20.6133 59.5953 20.5763 59.4336 20.5338C59.1347 20.4523 58.8408 20.353 58.5537 20.2366C58.7044 20.296 58.5821 20.248 58.5473 20.2327C58.5125 20.2175 58.4836 20.2043 58.4517 20.1903C58.3902 20.1618 58.3286 20.1321 58.2679 20.1011C58.1526 20.0428 58.0394 19.9808 57.9281 19.9151C57.8248 19.8539 57.7239 19.7895 57.6253 19.7219C57.5829 19.6917 57.5378 19.6611 57.4945 19.6297L57.4287 19.5809C57.3438 19.5176 57.523 19.6556 57.4406 19.5902C57.1715 19.3791 56.9256 19.1399 56.7072 18.8768C56.6881 18.8538 56.6702 18.83 56.6511 18.8067C56.6231 18.7727 56.7441 18.9298 56.6936 18.861L56.666 18.8241C56.6375 18.7855 56.6099 18.7468 56.5836 18.7069C56.5522 18.6602 56.5233 18.6118 56.494 18.5638L56.4834 18.5438C56.3683 18.3217 56.0392 18.2376 55.8302 18.3739C55.7233 18.4399 55.646 18.5446 55.6144 18.6662C55.5827 18.7878 55.5992 18.9169 55.6604 19.0267H55.6599Z" fill="black"/>
</g>
<defs>
<linearGradient id="paint0_linear_100_161" x1="61.0458" y1="6.70342" x2="61.3365" y2="17.3833" gradientUnits="userSpaceOnUse">
<stop stop-color="#F4E684"/>
<stop offset="1" stop-color="#FCD427"/>
</linearGradient>
<clipPath id="clip0_100_161">
<rect width="20.945" height="19.7941" fill="white" transform="translate(50.9668 5.08105)"/>
</clipPath>
</defs>
</svg>
